<svg xmlns="http://www.w3.org/2000/svg" width="1000.054" height="1000.054" viewBox="0 0 1426 1426">
  <defs>
    <style>
      .cls-1 {
        fill: #0f1923;
        stroke: #000;
        stroke-width: 1px;
        fill-rule: evenodd;
      }
    </style>
  </defs>
  <path id="Logo_copy" data-name="Logo copy" class="cls-1" d="M0,0H1426V1426H0V0ZM272.618,379.015V359.423s-0.132-5.544,8.148-5.544c1.5,0,3.022,1.629,9.259,10.35S849.281,1062.87,849.281,1062.87a6.546,6.546,0,0,1,1.482,5.55c-0.489,3.7-4.923,3.32-11.482,3.32H574.468s-10.8-1.14-15.926-9.24c-4.882-6.65-279.258-346.732-279.258-346.732s-4.953-6.17-5.185-13.677S272.618,379.015,272.618,379.015ZM778.541,829.621H1034.47s16.06,0.059,23.33-7.023,81.85-100.915,81.85-100.915,11.11-14.744,11.11-24.028V362.75s-0.18-8.5-7.41-8.5c-1.46,0-373.7,465.023-373.7,465.023a10.665,10.665,0,0,0-1.852,6.284C767.929,829.224,769.853,829.621,778.541,829.621Z"/>
</svg>
