<svg xmlns="http://www.w3.org/2000/svg" width="5570.917" height="797.246" viewBox="0 0 1705 244">
  <defs>
    <style>
      .cls-1 {
        fill: #ff4655;
        stroke: red;
        stroke-width: 1px;
        fill-rule: evenodd;
      }
    </style>
  </defs>
  <path id="Wordmark" class="cls-1" d="M667,41c43.527,0,78.813,36.265,78.813,81S710.527,203,667,203s-78.812-36.265-78.812-81S623.473,41,667,41ZM666.5,0C734.155,0,789,54.621,789,122S734.155,244,666.5,244,544,189.379,544,122,598.845,0,666.5,0ZM0,25V9S1.544,5,4,5H40s3,1.036,3,4V169h2L171,9a12.05,12.05,0,0,1,9-4h44s3-.147,3,2S47,235,47,235s-2.351,4-10,4H3s-3-.908-3-3V25ZM118,234L293,15s7.614-10,19-10h28s5,0.576,5,5V234s-0.123,5-7,5H305s-3.964.155-9-6-60-76-60-76h-1l-60,76s-5.9,6-12,6H119S116.571,237.811,118,234ZM397,13V9a6.32,6.32,0,0,1,6-4h34s4,0.693,4,3V198h98s2,0.275,2,2v1l-27,34s-3.677,4-8,4H401a6.313,6.313,0,0,1-4-6V13ZM828,224v12a4.3,4.3,0,0,0,4,3h36s4-.228,4-5V47H972l-67,84s-1.459,2.8-1,5,3,4,3,4l76,96s3.144,3,7,3h46a2.81,2.81,0,0,0,2-3v-1L958,135v-1l51-64s7-8.048,7-11V11s-0.26-6-5-6H832s-4,.626-4,4V224ZM1075,9V236s0.06,3,5,3h34a10.72,10.72,0,0,0,6-2c0.08-.136,63-79,63-79h2l60,75s4.19,6,9,6h46s1.86-.784,2-2v-2L1121,9a12.019,12.019,0,0,0-9-4h-33S1075,5.528,1075,9ZM301,70l-41,51v2l41,51V70Zm817,0,41,51v2l-40,50h-1V70Zm150-31V11s0.34-6,7-6h33a14.36,14.36,0,0,1,7,4c3.39,3.388,128,160,128,160V10s0.43-5,8-5h31s5,0.41,5,5V233s0.07,6-9,6h-32s-3.58-1.815-9-8S1312,74,1312,74v95a2.828,2.828,0,0,1-3,3c-0.19-.064-36-45-36-45s-5-5.659-5-12V39Zm315,8V235s0.51,4,4,4h35s4-.657,4-3V47h77a1.908,1.908,0,0,0,2-2V43l-24-30s-6.82-8.209-10-8H1522s-5-.586-5,5V42s0.36,5,6,5h60Z"/>
</svg>
