<?xml version="1.0" encoding="UTF-8" standalone="no"?>
<svg
   xmlns:dc="http://purl.org/dc/elements/1.1/"
   xmlns:cc="http://creativecommons.org/ns#"
   xmlns:rdf="http://www.w3.org/1999/02/22-rdf-syntax-ns#"
   xmlns:svg="http://www.w3.org/2000/svg"
   xmlns="http://www.w3.org/2000/svg"
   xmlns:sodipodi="http://sodipodi.sourceforge.net/DTD/sodipodi-0.dtd"
   xmlns:inkscape="http://www.inkscape.org/namespaces/inkscape"
   width="5.2916703mm"
   height="5.9359598mm"
   viewBox="0 0 5.2916703 5.9359598"
   version="1.1"
   id="svg48"
   inkscape:version="1.0 (4035a4fb49, 2020-05-01)"
   sodipodi:docname="persontarget.svg">
  <defs
     id="defs42" />
  <sodipodi:namedview
     id="base"
     pagecolor="#ffffff"
     bordercolor="#666666"
     borderopacity="1.0"
     inkscape:pageopacity="0.0"
     inkscape:pageshadow="2"
     inkscape:zoom="32"
     inkscape:cx="12.607993"
     inkscape:cy="13.556254"
     inkscape:document-units="px"
     inkscape:current-layer="layer2"
     inkscape:document-rotation="0"
     showgrid="false"
     inkscape:pagecheckerboard="true"
     inkscape:window-width="1920"
     inkscape:window-height="1017"
     inkscape:window-x="1912"
     inkscape:window-y="-8"
     inkscape:window-maximized="1" />
  <metadata
     id="metadata45">
    <rdf:RDF>
      <cc:Work
         rdf:about="">
        <dc:format>image/svg+xml</dc:format>
        <dc:type
           rdf:resource="http://purl.org/dc/dcmitype/StillImage" />
        <dc:title />
      </cc:Work>
    </rdf:RDF>
  </metadata>
  <g
     inkscape:label="Layer 1"
     inkscape:groupmode="layer"
     id="layer1"
     transform="translate(-3.1183017,-0.86760748)">
    <path
       style="fill:#ffffff;fill-rule:evenodd;stroke:none;stroke-width:0.264583"
       id="profile-[#1335]"
       d="m 5.764132,4.1577376 c -0.58367,0 -1.05833,-0.47466 -1.05833,-1.05833 0,-0.58367 0.47466,-1.05834 1.05833,-1.05834 0.58368,0 1.05834,0.47467 1.05834,1.05834 0,0.58367 -0.47466,1.05833 -1.05834,1.05833 m 0.99431,0.17807 c 0.36142,-0.29078 0.59319,-0.73634 0.59319,-1.2364 0,-0.87683 -0.71067,-1.5875 -1.5875,-1.5875 -0.87682,0 -1.5875,0.71067 -1.5875,1.5875 0,0.50006 0.23178,0.94562 0.5932,1.2364 -0.96811,0.3638 -1.6515303,1.26259 -1.6515303,2.46776 h 0.52917 c 0,-1.32291 0.9495903,-2.11666 2.1166603,-2.11666 1.16708,0 2.11667,0.79375 2.11667,2.11666 h 0.52917 c 0,-1.20517 -0.68342,-2.10396 -1.65153,-2.46776" />
  </g>
  <g
     transform="translate(0,0.64430012)"
     style="display:inline"
     inkscape:groupmode="layer"
     id="layer2"
     inkscape:label="Layer 2">
    <path
       d="m 3.5030678,1.5953051 c 0,-0.1236272 0.09601,-0.2239612 0.2143091,-0.2239612 H 3.9123963 C 3.8215299,0.80987583 3.3974137,0.36665807 2.8601423,0.27169893 v 0.2038027 c 0,0.1236274 -0.09601,0.2239611 -0.214309,0.2239611 -0.1182995,0 -0.2143093,-0.1003335 -0.2143093,-0.2239611 V 0.27169893 C 1.8942546,0.36665807 1.4701384,0.80987583 1.3792712,1.3713447 h 0.1950199 c 0.1182995,0 0.214309,0.1003339 0.214309,0.2239612 0,0.1236272 -0.09601,0.2239612 -0.214309,0.2239612 H 1.3792712 c 0.090866,0.5614691 0.5149834,1.0046865 1.0522545,1.0996458 V 2.7151101 c 0,-0.1236272 0.09601,-0.223961 0.2143095,-0.223961 0.1182997,0 0.2143089,0.1003327 0.2143089,0.223961 V 2.9189129 C 3.3974137,2.8239508 3.8215299,2.3807343 3.9123966,1.8192654 H 3.7173771 c -0.1182995,0 -0.2143092,-0.1003328 -0.2143092,-0.2239612 m 1.2858504,0 c 0,0.1236273 -0.09601,0.2239612 -0.2143091,0.2239612 H 4.345514 C 4.2486466,2.6293304 3.6352962,3.2703048 2.8601423,3.3715352 v 0.2394135 c 0,0.1236273 -0.09601,0.2239612 -0.214309,0.2239612 -0.1182995,0 -0.2143093,-0.1003338 -0.2143093,-0.2239612 V 3.3715352 C 1.6563724,3.2703048 1.0430221,2.6293304 0.94615424,1.8192654 H 0.71705876 c -0.11829956,0 -0.21430906,-0.1003328 -0.21430906,-0.2239612 0,-0.123627 0.0960101,-0.2239615 0.21430906,-0.2239615 H 0.94615424 C 1.0430228,0.56127983 1.6563724,-0.07969538 2.4315257,-0.18092528 v -0.2394136 c 0,-0.12362745 0.09601,-0.22396125 0.2143095,-0.22396125 0.1182997,0 0.2143089,0.100334 0.2143089,0.22396125 v 0.2394136 C 3.6352977,-0.07969675 4.2486486,0.56127983 4.345516,1.3713447 h 0.2290953 c 0.1182996,0 0.2143093,0.1003339 0.2143093,0.2239612 m -1.5001587,0 c 0,0.1236272 -0.096009,0.2239612 -0.2143091,0.2239612 H 2.8601434 v 0.2239614 c 0,0.1236271 -0.09601,0.2239611 -0.214309,0.2239611 -0.1182995,0 -0.2143093,-0.1003317 -0.2143093,-0.2239611 V 1.8192671 h -0.214309 c -0.1182997,0 -0.2143092,-0.1003307 -0.2143092,-0.2239612 0,-0.1236271 0.09601,-0.2239612 0.2143092,-0.2239612 h 0.214309 V 1.1473834 c 0,-0.1236275 0.09601,-0.22396137 0.2143093,-0.22396137 0.1182996,0 0.214309,0.10033497 0.214309,0.22396137 v 0.2239613 h 0.2143094 c 0.1182997,0 0.2143091,0.1003339 0.2143091,0.2239612"
       id="target-[#81]"
       style="fill:#790000;fill-opacity:1;fill-rule:evenodd;stroke:none;stroke-width:0.219081;stroke-opacity:1" />
  </g>
</svg>
